<?xml version="1.0" encoding="UTF-8" standalone="no"?>
<!-- Created with Inkscape (http://www.inkscape.org/) -->

<svg
   version="1.1"
   id="svg1"
   width="29.171268"
   height="25.935455"
   viewBox="0 0 29.171269 25.935456"
   sodipodi:docname="folder4.png"
   xmlns:inkscape="http://www.inkscape.org/namespaces/inkscape"
   xmlns:sodipodi="http://sodipodi.sourceforge.net/DTD/sodipodi-0.dtd"
   xmlns="http://www.w3.org/2000/svg"
   xmlns:svg="http://www.w3.org/2000/svg">
  <defs
     id="defs1" />
  <sodipodi:namedview
     id="namedview1"
     pagecolor="#ffffff"
     bordercolor="#666666"
     borderopacity="1.0"
     inkscape:showpageshadow="2"
     inkscape:pageopacity="0.0"
     inkscape:pagecheckerboard="0"
     inkscape:deskcolor="#d1d1d1"
     inkscape:zoom="14.119164"
     inkscape:cx="16.785696"
     inkscape:cy="16.785696"
     inkscape:window-width="1364"
     inkscape:window-height="744"
     inkscape:window-x="0"
     inkscape:window-y="22"
     inkscape:window-maximized="1"
     inkscape:current-layer="g1">
    <inkscape:page
       x="0"
       y="0"
       width="29.171268"
       height="25.935455"
       id="page2"
       margin="0"
       bleed="0" />
  </sodipodi:namedview>
  <g
     inkscape:groupmode="layer"
     inkscape:label="Image"
     id="g1"
     transform="translate(-0.73730742,-1.2842506)">
    <g
       id="g17733"
       transform="translate(0.5957517,1.153259)">
      <path
         style="fill:#bc4717;fill-opacity:1"
         d="m 14.810433,26.063929 c -4.048,0.03237 -8.641627,-0.25528 -9.659142,-0.413203 C 4.133776,25.492807 2.983871,25.098814 2.369919,24.807475 1.755968,24.516136 0.82796195,23.609899 0.56636395,22.986617 0.15092995,21.996806 0.09131895,22.143793 0.17298595,12.330253 0.22419595,6.176717 0.40964795,2.202341 0.62359495,1.673492 0.81328895,1.20459 1.372363,0.792598 1.865982,0.588135 2.3596,0.383671 4.373562,0.168251 6.284845,0.137725 c 2.328594,-0.03719 3.642032,0.07953 4.122276,0.353787 0.394179,0.225107 0.816089,0.981745 1.117268,1.45721 0.678467,1.07108 0.765299,1.029072 3.020234,1.031653 2.795585,0.0032 8.684743,0.23313 9.474671,0.339828 1.022094,0.138058 1.667913,0.4668 2.296844,1.140074 0.486072,0.520341 0.791139,2.404192 0.791139,2.799475 0,0.395284 0.345316,0.08745 0.868223,0.634625 0.522907,0.547172 1.020075,1.21786 1.137107,1.684152 0.117032,0.466292 0.265761,1.770289 0.169063,3.026927 -0.0967,1.256639 -0.621262,3.652797 -1.165695,5.324797 -0.544434,1.672 -1.384903,3.76 -1.86771,4.64 -0.679216,1.237992 -1.239839,1.833509 -2.47783,2.451367 -1.553878,0.77551 -1.812162,0.985155 -8.960002,1.042309 z m -0.08074,-0.840872 c 5.802653,-0.05524 7.424705,-0.247409 8.357818,-0.661046 0.636799,-0.282286 1.656055,-1.054343 2.135856,-1.683395 0.4798,-0.629051 1.452861,-2.82159 2.06549,-4.710863 0.612629,-1.889274 1.195357,-4.433436 1.294952,-5.621405 0.114553,-1.366384 -0.0931,-2.635087 -0.337772,-3.225765 C 28.033317,8.807033 27.132371,8.118502 26.695985,7.919671 26.160835,7.67584 22.859871,7.663835 16.172266,7.663835 c -7.754169,0 -9.9959063,0.117816 -10.850668,0.419628 -0.6000311,0.211868 -1.783879,0.908522 -2.239643,1.50606 -0.455765,0.597538 -1.107466,1.918399 -1.383648,2.967535 -0.276182,1.049137 -0.486755,3.401221 -0.650819,5.198738 -0.26624305,2.917015 -0.21383805,3.458665 0.02685,4.493352 0.158525,0.681478 0.821348,1.287826 1.761221,1.839105 1.444182,0.84708 2.639671,0.856946 3.655077,0.946578 1.165899,0.102917 4.279057,0.225926 8.239057,0.188226 z M 1.987131,9.95816 C 2.2246153,9.39396 2.856472,8.671281 3.486766,8.110313 4.202895,7.472951 5.214768,7.190257 6.145802,7.00945 6.965241,6.850314 10.295958,6.773034 15.45178,6.819554 c 1.641686,0.01481 6.927614,0.0057 9.559107,0.13234 1.393444,0.06704 1.31657,0.117042 1.117244,-0.714219 C 26.046621,5.897759 25.818704,4.917856 25.329639,4.554053 24.538767,3.965743 24.235587,3.937069 18.401224,3.805526 15.192696,3.733186 12.341109,3.568432 12.060824,3.554883 11.780539,3.541333 11.281721,3.029829 10.95234,2.418205 10.622959,1.806581 10.177659,1.1201183 9.9073262,1.0148703 9.6369922,0.90962126 8.0462,0.794679 6.342783,0.807123 4.639366,0.819563 3.3538229,0.96409911 2.3344862,1.2310965 1.8644536,1.3542133 1.3583008,1.8459691 1.2342546,2.3045138 1.0590112,2.9523129 1.028817,6.2190071 0.97584525,7.5840562 0.76072688,13.127518 0.8179594,12.735801 1.210226,11.80388 Z m 11.057463,5.999332 c -0.129207,-0.14359 -0.35464,-0.497238 -0.358959,-0.735058 -0.0076,-0.416351 -0.01407,-0.467003 0.196923,-0.758903 0.2066,-0.285829 0.428434,-0.04534 0.422686,0.165512 -0.0095,0.348285 0.02523,0.430877 0.120247,0.583756 0.113398,0.182454 0.277144,0.355927 0.436677,0.358624 0.20017,0.0034 0.491101,-0.106819 0.661228,-0.320907 0.26845,-0.337818 0.195197,-0.536358 0.503035,-0.542809 0.334808,-0.007 0.304456,0.316256 0.470769,0.561977 0.103559,0.153006 0.22155,0.253877 0.433467,0.238099 0.2428,-0.01808 0.232591,0.128825 0.496527,-0.07778 0.112397,-0.08799 0.214503,-0.383549 0.205337,-0.593991 -0.0071,-0.162573 -0.03362,-0.626148 0.344775,-0.394532 0.278015,0.170173 0.298921,0.364062 0.267525,0.748413 -0.03412,0.417674 -0.227641,0.638741 -0.320162,0.750979 -0.07974,0.09674 -0.521665,0.375784 -0.83015,0.364681 -0.262736,-0.0095 -0.4139,-0.09209 -0.492809,-0.163046 -0.520355,-0.467921 -0.595604,-0.380095 -1.091908,-0.0036 -0.167503,0.09675 -0.396175,0.12779 -0.724114,0.128868 -0.253108,8.32e-4 -0.601803,-0.155527 -0.741096,-0.310327 z"
         id="path17720"
         sodipodi:nodetypes="ssssssssssssssssssssssssssssssssssssssssssssssssssssssssssscssssssssssscsss" />
      <path
         style="fill:#bc4717;fill-opacity:1"
         d="M 18.964615,14.752139 C 0,0 0,0 18.964615,14.752139 Z m -8.394934,0 c -0.515284,-0.075 -0.465551,-1.029343 -0.426529,-1.560152 0.04237,-0.576403 -0.05899,-1.424642 0.582054,-1.402838 0.553276,0.01882 0.459405,0.328962 0.459405,1.343886 0,0.421354 0.0094,1.709975 -0.61493,1.619104 z"
         id="path17730"
         sodipodi:nodetypes="sssssss" />
      <path
         style="fill:#bc4717;fill-opacity:1"
         d="m 19.028982,14.782266 c -0.515284,-0.075 -0.465551,-1.029343 -0.426529,-1.560152 0.04237,-0.576403 -0.05899,-1.424642 0.582054,-1.402838 0.553276,0.01882 0.459405,0.328962 0.459405,1.343886 0,0.421354 0.0094,1.709975 -0.61493,1.619104 z"
         id="path17733"
         sodipodi:nodetypes="sssss" />
      <path
         style="opacity:1;fill:#f3d388;fill-opacity:1;stroke-width:0.137446;stroke-dasharray:none"
         d="m 1.6468241,37.189229 c 0.1044138,-5.412612 0.1377329,-5.720222 0.6783173,-6.262382 0.6602617,-0.662186 1.5535009,-0.804944 5.0365437,-0.804944 3.3601549,0 3.2454049,-0.03408 3.9275399,1.166285 0.193063,0.339735 0.531906,0.811678 0.752984,1.048762 l 0.401961,0.431061 2.011693,0.08946 c 1.106431,0.0492 3.802539,0.14775 5.991352,0.218998 2.188812,0.07125 4.226672,0.197849 4.528577,0.281337 0.301906,0.08349 0.715967,0.309322 0.920136,0.501854 0.373068,0.351802 0.79521,1.349108 0.795264,1.878799 l 2.7e-5,0.28432 h -9.983483 c -9.9380541,0 -9.9879016,0.0014 -10.9542197,0.305373 -1.7229948,0.542017 -2.7641757,1.599819 -3.6840897,3.742901 l -0.5006971,1.166452 z"
         id="path17739"
         transform="translate(-0.5957517,-29.153259)" />
    </g>
    <path
       style="opacity:1;fill:#fae3ad;fill-opacity:1;stroke-width:0.105003;stroke-dasharray:none"
       d="M 8.7015842,26.242333 C 7.0628168,26.148127 5.4581054,25.966984 4.9563721,25.819568 3.5075134,25.39387 1.9755224,24.25521 1.7322425,23.423217 1.4970236,22.618793 1.4942994,21.172158 1.7232595,18.653072 2.1519428,13.936573 2.4801675,12.607448 3.6306908,10.929051 3.9988804,10.391932 5.3164925,9.491107 6.0544988,9.271942 7.0840475,8.966199 9.8574692,8.887944 18.451552,8.922146 c 8.248755,0.03283 8.394849,0.03699 8.858842,0.252295 0.652585,0.302821 1.424617,1.079737 1.567736,1.577653 0.241814,0.841282 0.331636,2.157412 0.21367,3.130832 -0.412637,3.404953 -2.315871,8.989645 -3.516543,10.318645 -0.591563,0.654789 -1.646613,1.368569 -2.343503,1.585466 -1.174323,0.36549 -2.430024,0.436232 -8.239868,0.464202 -3.113699,0.01499 -5.9443352,0.01098 -6.2903018,-0.0089 z m 6.4749408,-8.95216 c 0.482293,-0.258494 0.585699,-0.258494 0.916164,0 0.144153,0.112758 0.403628,0.205887 0.576611,0.206954 0.412032,0.0025 0.974708,-0.347075 1.103416,-0.6856 0.151478,-0.398419 0.124209,-1.050011 -0.05,-1.194588 -0.235227,-0.195221 -0.52547,-0.08789 -0.558578,0.206568 -0.05895,0.524288 -0.129576,0.711004 -0.292591,0.773559 -0.30847,0.118372 -0.639935,-0.05071 -0.813684,-0.41507 -0.235707,-0.494281 -0.599808,-0.492655 -0.892834,0.004 -0.283607,0.480677 -0.710794,0.598575 -0.977123,0.269673 -0.105593,-0.130403 -0.191988,-0.340796 -0.191988,-0.46754 0,-0.126744 -0.06651,-0.321395 -0.147789,-0.432557 -0.145025,-0.198333 -0.151888,-0.198404 -0.366934,-0.0038 -0.459125,0.415502 -0.186316,1.520976 0.442878,1.794631 0.465552,0.202482 0.79756,0.187577 1.252448,-0.05623 z m 4.69265,-1.364132 c 0.282749,-0.151323 0.415791,-0.744219 0.416463,-1.855959 5.3e-4,-0.873419 -0.02046,-0.977329 -0.218856,-1.083508 -0.661683,-0.354122 -0.976794,0.270049 -0.917225,1.816835 0.02986,0.775386 0.06992,0.956108 0.239368,1.079961 0.242629,0.177339 0.230614,0.176271 0.48025,0.04267 z m -8.209882,-0.313282 c 0.175479,-0.348605 0.182844,-2.426364 0.0092,-2.599991 -0.188571,-0.188571 -0.552105,-0.15173 -0.75903,0.07692 -0.246403,0.272272 -0.300047,2.387441 -0.06768,2.668701 0.210465,0.254752 0.655898,0.175402 0.817496,-0.14563 z"
       id="path17740"
       inkscape:export-filename="path17740.png"
       inkscape:export-xdpi="300"
       inkscape:export-ydpi="300" />
  </g>
</svg>
